<?xml version="1.0" encoding="utf-8"?>
<!-- Generator: Adobe Illustrator 22.0.0, SVG Export Plug-In . SVG Version: 6.00 Build 0)  -->
<svg version="1.1" id="Layer_1" xmlns="http://www.w3.org/2000/svg" xmlns:xlink="http://www.w3.org/1999/xlink" x="0px" y="0px"
	 viewBox="0 0 46 46" style="enable-background:new 0 0 46 46;" xml:space="preserve">
<style type="text/css">
	.st0{fill:#FFFFFF;}
	.st1{fill:none;}
</style>
<g>
	<path class="st0" d="M24.9,20.9c-0.6-0.3-1.2-0.6-1.8-0.9c-0.1,0-0.2-0.1-0.3-0.1l0,0c0,0,0,0,0,0c-2.1-0.9-4.3-1.6-6.5-2
		c1.5-2,4-3.3,6.7-3.3c0.2,0,0.4,0,0.5,0c0.2,0.5,0.3,1,0.5,1.6L24.9,20.9z"/>
	<path class="st0" d="M30.6,19.2c-0.4,0.4-0.7,0.8-1.1,1.2c0,0,0,0,0,0l-3.7,3.1c0-0.7-0.1-1.3-0.1-2c0-0.1,0-0.2,0-0.3l0,0
		c0,0,0,0,0,0c-0.3-2.3-0.8-4.5-1.5-6.7C26.9,15,29.4,16.8,30.6,19.2z"/>
	<path class="st0" d="M31.5,23c0,1.7-0.5,3.4-1.4,4.7c-0.5-0.1-1.1-0.2-1.6-0.3l-4.6-1.6c0.6-0.4,1.1-0.7,1.7-1.1
		c0.1-0.1,0.1-0.1,0.2-0.2h0v0c1.8-1.4,3.5-2.9,5-4.6C31.2,20.7,31.5,21.8,31.5,23z"/>
	<path class="st0" d="M29.7,28.1c-1.5,2-4,3.3-6.7,3.3c-0.2,0-0.4,0-0.5,0c-0.2-0.5-0.3-1-0.5-1.6l-0.9-4.8c0.6,0.3,1.2,0.6,1.8,0.9
		c0.1,0,0.2,0.1,0.3,0.1l0,0c0,0,0,0,0,0C25.3,27,27.5,27.7,29.7,28.1z"/>
	<path class="st0" d="M21.9,31.4c-2.9-0.4-5.3-2.2-6.5-4.6c0.4-0.4,0.7-0.8,1.1-1.2l0,0c0,0,0,0,0,0l3.7-3.1c0,0.7,0.1,1.3,0.1,2
		c0,0.1,0,0.2,0,0.3l0,0c0,0,0,0,0,0C20.7,27,21.2,29.2,21.9,31.4z"/>
	<path class="st0" d="M22.1,20.3c-0.6,0.4-1.1,0.7-1.7,1.1c-0.1,0.1-0.1,0.1-0.2,0.2h0v0c-1.8,1.4-3.5,2.9-5,4.6
		c-0.4-1-0.7-2.1-0.7-3.3c0-1.7,0.5-3.4,1.4-4.7c0.5,0.1,1.1,0.2,1.6,0.3h0L22.1,20.3z"/>
</g>
<g>
	<circle class="st1" cx="23" cy="23" r="10"/>
	<path class="st0" d="M14.7,17.3l-2-1.6l0.2-0.3l1.8,1.4l0.7-0.9l0.2,0.2L14.7,17.3z"/>
	<path class="st0" d="M15.9,15.9l-1.7-2l1.3-1.1l0.2,0.2l-1,0.9l0.5,0.6l1-0.9l0.2,0.2l-1,0.9l0.6,0.7l1-0.9l0.2,0.2L15.9,15.9z"/>
	<path class="st0" d="M19.1,13.7l-0.5-0.4l-1.1,0.6l0.1,0.6l-0.3,0.2L17,12l0.4-0.2l2.1,1.8L19.1,13.7z M17.3,12.2l0.2,1.5l1-0.5
		L17.3,12.2z"/>
	<path class="st0" d="M21.1,13.2l-0.9-0.8l-0.5,0.1l0.3,1l-0.3,0.1L19,11.1l1-0.3c0.5-0.1,0.9,0.1,1,0.5c0.1,0.4-0.1,0.8-0.5,0.9
		l0.9,0.8L21.1,13.2z M20.6,11.4c-0.1-0.3-0.3-0.4-0.6-0.3l-0.7,0.2l0.2,0.9l0.7-0.2C20.6,12,20.7,11.7,20.6,11.4z"/>
	<path class="st0" d="M23.6,13l-1.5-2l0,2l-0.3,0l0-2.6l0.3,0l1.5,2l0-2l0.3,0l0,2.6L23.6,13z"/>
	<path class="st0" d="M25.3,13.3l0.6-2.5l0.3,0.1l-0.6,2.5L25.3,13.3z"/>
	<path class="st0" d="M27.8,14.2l-0.5-2.5l-0.8,1.9l-0.3-0.1l1-2.3l0.3,0.1l0.5,2.4l0.8-1.8l0.3,0.1l-1,2.3L27.8,14.2z"/>
	<path class="st0" d="M30.5,16.4l0.2-0.6l-0.9-0.9l-0.6,0.3L29,14.9l2.5-1.1l0.3,0.3l-1,2.6L30.5,16.4z M31.4,14.1l-1.3,0.6l0.8,0.8
		L31.4,14.1z"/>
	<path class="st0" d="M32.4,19.5l1.9-0.9L32,18.7L32,18.6l1.5-1.7l-1.9,0.9l-0.1-0.3l2.3-1.1l0.2,0.4l-1.4,1.6l2.1-0.1l0.2,0.4
		l-2.3,1.1L32.4,19.5z"/>
	<path class="st0" d="M32.6,20.3l2.5-0.7l0.1,0.3l-2.5,0.7L32.6,20.3z"/>
	<path class="st0" d="M33,22.9l1.9-1.7l-2,0.2l0-0.3l2.6-0.2l0,0.3l-1.9,1.6l2-0.2l0,0.3l-2.6,0.2L33,22.9z"/>
	<path class="st0" d="M34,23.8l1.6,0.3l-0.1,0.3L34,24.1c-0.5-0.1-0.8,0.1-0.9,0.6c-0.1,0.5,0.2,0.8,0.6,0.8l1.5,0.3l-0.1,0.3
		l-1.5-0.3c-0.6-0.1-1-0.5-0.9-1.2C32.9,24,33.4,23.7,34,23.8z"/>
	<path class="st0" d="M32.3,26.7l2.1,0.9l0.3-0.7L35,27l-0.8,1.8l-0.3-0.1l0.3-0.8L32.2,27L32.3,26.7z"/>
	<path class="st0" d="M31.7,28l2.1,1.5l-1,1.4l-0.2-0.2l0.8-1.1l-0.7-0.5l-0.8,1.1l-0.2-0.2l0.8-1.1l-0.7-0.5l-0.8,1.1l-0.2-0.2
		L31.7,28z"/>
</g>
<g>
</g>
<g>
</g>
<g>
</g>
<g>
</g>
<g>
</g>
<g>
</g>
<g>
</g>
<g>
</g>
<g>
</g>
<g>
</g>
<g>
</g>
<g>
</g>
<g>
</g>
<g>
</g>
<g>
</g>
</svg>
