<?xml version="1.0" encoding="utf-8"?>
<!-- Generator: Adobe Illustrator 22.0.0, SVG Export Plug-In . SVG Version: 6.00 Build 0)  -->
<svg version="1.1" id="Layer_1" xmlns="http://www.w3.org/2000/svg" xmlns:xlink="http://www.w3.org/1999/xlink" x="0px" y="0px"
	 viewBox="0 0 200 60" style="enable-background:new 0 0 200 60;" xml:space="preserve">
<style type="text/css">
	.st0{fill:#FFFFFF;}
</style>
<g>
	<path class="st0" d="M47.7,23.8v7.5h-6.5c-0.9,0-1.5,0.1-1.9,0.4s-0.6,0.7-0.6,1.3c0,0.7,0.2,1.2,0.6,1.4s1.1,0.3,2.3,0.3h6.7v9.6
		h-7.9c-3.7,0-6.5-0.9-8.5-2.6s-2.9-4.3-2.9-7.6V20.9c0-3.2,0.9-5.7,2.8-7.5s4.4-2.7,7.8-2.7h8.7v9.7H42c-1.7,0-2.6,0.6-2.6,1.7
		c0,0.7,0.2,1.1,0.6,1.4c0.4,0.3,1.1,0.4,2.2,0.4H47.7z"/>
	<path class="st0" d="M87.1,44.4h-9.2V31.1c0-1-0.1-1.7-0.3-2.1c-0.2-0.4-0.6-0.6-1.2-0.6c-1,0-1.6,0.9-1.6,2.7v13.2h-9.2V31.1
		c0-1-0.1-1.7-0.3-2.1c-0.2-0.4-0.6-0.6-1.2-0.6c-1,0-1.5,0.9-1.5,2.7v13.2h-9.2V29.3c0-2.8,0.9-5.1,2.8-7c1.9-1.9,4.1-2.9,6.8-2.9
		c2.7,0,5.2,1.1,7.3,3.4c2.4-2.3,4.8-3.4,7.2-3.4c3.1,0,5.5,1.1,7.4,3.4c1.5,1.7,2.2,4.3,2.2,7.6V44.4z"/>
	<path class="st0" d="M101.2,10.8v20.1c0,3.3,1.2,4.9,3.5,4.9c1,0,1.9-0.3,2.6-1c0.7-0.7,1-1.5,1-2.5c0-1-0.3-1.8-1-2.5
		c-0.7-0.7-1.5-1-2.4-1c-0.7,0-1.4,0.3-2.3,0.9V19.5c1.1-0.1,1.9-0.1,2.5-0.1c3.5,0,6.4,1.2,8.9,3.7c2.5,2.5,3.7,5.5,3.7,9
		c0,3.6-1.3,6.6-3.8,9.1c-2.5,2.5-5.6,3.7-9.3,3.7c-1.8,0-3.6-0.4-5.4-1.2c-1.7-0.8-3.2-1.9-4.3-3.3c-2-2.4-3-5.4-3-9.2V10.8H101.2z
		"/>
	<path class="st0" d="M145.8,33.6h-14c-0.2-0.7-0.3-1.4-0.3-1.9c0-0.8,0.1-1.6,0.4-2.4h4.7c-0.3-1.8-1.4-2.7-3.1-2.7
		c-1.1,0-2.1,0.5-2.8,1.5s-1.1,2.2-1.1,3.8c0,1.6,0.3,2.9,1,3.9c0.7,1,1.6,1.5,2.7,1.5c0.9,0,1.8-0.5,2.7-1.4l5.2,6.3
		c-2.4,1.9-5.2,2.9-8.2,2.9c-3.6,0-6.7-1.2-9.2-3.7c-2.5-2.4-3.7-5.5-3.7-9.1c0-3.6,1.3-6.6,3.8-9.1c2.5-2.5,5.6-3.7,9.2-3.7
		c3.6,0,6.6,1.2,9,3.6c2.4,2.4,3.6,5.4,3.6,9C145.9,32.2,145.9,32.8,145.8,33.6z"/>
	<path class="st0" d="M163.1,19.6v9.9c-0.6-0.4-1.2-0.5-1.7-0.5c-1.7,0-2.5,1.3-2.5,3.8v11.7h-9.2V31c0-3.5,1-6.4,2.9-8.5
		c1.9-2.1,4.5-3.2,7.8-3.2C161,19.3,162,19.4,163.1,19.6z"/>
</g>
</svg>
