<?xml version="1.0" encoding="utf-8"?>
<!-- Generator: Adobe Illustrator 22.0.0, SVG Export Plug-In . SVG Version: 6.00 Build 0)  -->
<svg version="1.1" id="Layer_1" xmlns="http://www.w3.org/2000/svg" xmlns:xlink="http://www.w3.org/1999/xlink" x="0px" y="0px"
	 viewBox="0 0 80 80" style="enable-background:new 0 0 80 80;" xml:space="preserve">
<style type="text/css">
	.st0{fill:#FFFFFF;}
</style>
<circle cx="42" cy="38" r="33"/>
<g>
	<g>
		<path class="st0" d="M44.3,64.1c-0.2-1.2,0.4-2.1,1.4-2.2c0.5-0.1,0.9,0.1,1.1,0.3l-0.2,0.3c-0.2-0.2-0.5-0.3-0.8-0.2
			c-0.7,0.1-1.1,0.8-1,1.7c0.1,1,0.7,1.5,1.4,1.4c0.4,0,0.6-0.2,0.8-0.5l0.3,0.3c-0.2,0.4-0.6,0.7-1.1,0.7
			C45.3,65.9,44.5,65.3,44.3,64.1z"/>
		<path class="st0" d="M47.5,61.6l1.2-0.3c0.8-0.2,1.4-0.1,1.6,0.7c0.2,0.7-0.2,1.3-1,1.5l-0.7,0.2l0.4,1.6l-0.5,0.1L47.5,61.6z
			 M49.1,63c0.6-0.2,0.8-0.5,0.7-1c-0.1-0.5-0.5-0.6-1.1-0.4l-0.6,0.2l0.4,1.4L49.1,63z M49.5,62.9l1.7,1.6l-0.5,0.2l-1.5-1.4
			L49.5,62.9z"/>
		<path class="st0" d="M50.8,60.5l2.2-1l0.2,0.4l-1.7,0.8l0.5,1.1l1.5-0.7l0.2,0.4l-1.5,0.7l0.6,1.3l1.8-0.8l0.2,0.4l-2.2,1
			L50.8,60.5z"/>
		<path class="st0" d="M54.5,58.7l0.5-0.3l3.2,2.6l-0.5,0.3L56,59.8c-0.3-0.3-0.7-0.6-1-0.9l0,0c0.1,0.4,0.3,0.9,0.4,1.3l0.6,2.2
			l-0.4,0.3L54.5,58.7z M55.2,61l1.5-0.9l0.2,0.3l-1.5,0.9L55.2,61z"/>
		<path class="st0" d="M57.6,57l-1,0.8l-0.3-0.3l2.3-2l0.3,0.3l-1,0.8l2.2,2.7l-0.4,0.3L57.6,57z"/>
		<path class="st0" d="M61.7,57.4l0.6-0.7l-2.3-2l-0.6,0.7l-0.3-0.3l1.6-1.8l0.3,0.3l-0.6,0.7l2.3,2l0.6-0.7l0.3,0.3L62,57.7
			L61.7,57.4z"/>
		<path class="st0" d="M61.1,52.9l0.3-0.4l2.1,0.7c0.5,0.1,0.8,0.3,1.3,0.4l0,0c-0.3-0.4-0.5-0.7-0.8-1l-1.4-1.7l0.3-0.4l2.5,3.2
			L65,54L61.1,52.9z"/>
		<path class="st0" d="M63.2,49.7l1.1-2.1l0.4,0.2l-0.8,1.7l1.1,0.5l0.7-1.4l0.4,0.2l-0.7,1.4l1.3,0.6l0.9-1.8l0.4,0.2l-1.1,2.2
			L63.2,49.7z"/>
		<path class="st0" d="M65.6,43.6l0.2-0.9c0.2-1.1,1-1.6,2.2-1.4c1.2,0.2,1.8,1,1.6,2.1l-0.2,1L65.6,43.6z M69.1,43.3
			c0.2-0.9-0.3-1.4-1.3-1.6c-1-0.2-1.6,0.2-1.7,1L66,43.2l3,0.5L69.1,43.3z"/>
		<path class="st0" d="M69.6,40.4l0-1l-3-0.1l0,1l-0.4,0l0.1-2.4l0.4,0l0,1l3,0.1l0-1l0.4,0L70,40.4L69.6,40.4z"/>
		<path class="st0" d="M66.2,36.8l-0.1-1.2c-0.1-0.8,0.2-1.4,1-1.5c0.8-0.1,1.2,0.5,1.3,1.2l0.1,0.7L70,36l0,0.5L66.2,36.8z
			 M67.9,35.5c-0.1-0.6-0.3-0.9-0.8-0.9c-0.5,0-0.7,0.4-0.6,1l0.1,0.6l1.4-0.1L67.9,35.5z M67.9,35.2l1.9-1.4l0.1,0.6l-1.7,1.2
			L67.9,35.2z"/>
		<path class="st0" d="M65.8,33.4l-0.6-2.3l0.4-0.1l0.4,1.8l1.2-0.3L66.9,31l0.4-0.1l0.4,1.6l1.4-0.3l-0.5-1.9l0.4-0.1l0.6,2.4
			L65.8,33.4z"/>
		<path class="st0" d="M66.8,29.7c-1.2,0.5-2.1,0.1-2.5-0.9c-0.2-0.4-0.1-0.9,0-1.2l0.4,0.1c-0.1,0.3-0.2,0.6,0,0.9
			c0.3,0.7,1,0.9,1.9,0.6c0.9-0.4,1.3-1,1-1.7c-0.1-0.3-0.4-0.5-0.7-0.7l0.2-0.4c0.4,0.1,0.8,0.4,1,0.9C68.4,28.3,68,29.3,66.8,29.7
			z"/>
		<path class="st0" d="M63.6,26.1l0.6,1.1l-0.4,0.2l-1.5-2.7l0.4-0.2l0.6,1.1l3-1.7l0.2,0.4L63.6,26.1z"/>
		<path class="st0" d="M63.6,23.3c-1,0.8-2,0.7-2.5,0c-0.5-0.7-0.3-1.6,0.7-2.4c1-0.8,2-0.7,2.5,0S64.6,22.6,63.6,23.3z M62.1,21.4
			c-0.8,0.6-1,1.3-0.6,1.7c0.4,0.5,1.1,0.4,1.8-0.2c0.8-0.6,1-1.3,0.7-1.7C63.6,20.7,62.9,20.8,62.1,21.4z"/>
		<path class="st0" d="M59.8,21.6L59,20.8c-0.6-0.6-0.8-1.2-0.2-1.7c0.5-0.5,1.2-0.4,1.8,0.1l0.5,0.5l1.1-1.2l0.4,0.4L59.8,21.6z
			 M60.3,19.5c-0.4-0.4-0.8-0.5-1.2-0.1c-0.4,0.4-0.3,0.7,0.2,1.1l0.5,0.4l1-1L60.3,19.5z M60.1,19.3l0.6-2.3l0.4,0.4l-0.5,2
			L60.1,19.3z"/>
	</g>
</g>
</svg>
